<mxfile host="65bd71144e" pages="1">
    <diagram id="jOtRKQ2wYUvojYZ9-hIU" name="Page-1">
        <mxGraphModel dx="853" dy="779" grid="1" gridSize="10" guides="1" tooltips="1" connect="1" arrows="1" fold="1" page="1" pageScale="1" pageWidth="850" pageHeight="1100" background="none" math="0" shadow="0">
            <root>
                <mxCell id="0"/>
                <mxCell id="1" parent="0"/>
                <mxCell id="9" style="edgeStyle=orthogonalEdgeStyle;orthogonalLoop=1;jettySize=auto;html=1;entryX=0.5;entryY=1;entryDx=0;entryDy=0;sketch=1;fontColor=#0D0D0D;labelBackgroundColor=#FFFFFF;" parent="1" source="2" target="3" edge="1">
                    <mxGeometry relative="1" as="geometry"/>
                </mxCell>
                <mxCell id="32" value="&lt;span style=&quot;text-align: left&quot;&gt;&lt;br&gt;&lt;/span&gt;" style="text;html=1;resizable=0;points=[];align=center;verticalAlign=middle;rounded=1;sketch=1;labelBackgroundColor=#FFFFFF;fontColor=#0D0D0D;" parent="9" vertex="1" connectable="0">
                    <mxGeometry x="0.1379" y="2" relative="1" as="geometry">
                        <mxPoint as="offset"/>
                    </mxGeometry>
                </mxCell>
                <mxCell id="55" value="&lt;span style=&quot;font-size: 12px ; text-align: left&quot;&gt;service injection /&lt;/span&gt;&lt;br style=&quot;font-size: 12px ; text-align: left&quot;&gt;&lt;span style=&quot;font-size: 12px ; text-align: left&quot;&gt;correction /&lt;br&gt;alerts&lt;/span&gt;" style="edgeLabel;html=1;align=center;verticalAlign=middle;resizable=0;points=[];fontColor=#0D0D0D;labelBackgroundColor=#FFFFFF;" vertex="1" connectable="0" parent="9">
                    <mxGeometry x="-0.1" y="-2" relative="1" as="geometry">
                        <mxPoint y="1" as="offset"/>
                    </mxGeometry>
                </mxCell>
                <mxCell id="42" style="edgeStyle=orthogonalEdgeStyle;orthogonalLoop=1;jettySize=auto;html=1;entryX=0;entryY=0.5;entryDx=0;entryDy=0;sketch=1;fontColor=#0D0D0D;labelBackgroundColor=#FFFFFF;" parent="1" source="2" target="11" edge="1">
                    <mxGeometry relative="1" as="geometry"/>
                </mxCell>
                <mxCell id="43" value="conrrect&amp;nbsp;" style="text;html=1;resizable=0;points=[];align=center;verticalAlign=middle;rounded=1;sketch=1;fontColor=#0D0D0D;labelBackgroundColor=#FFFFFF;" parent="42" vertex="1" connectable="0">
                    <mxGeometry x="-0.3009" y="-12" relative="1" as="geometry">
                        <mxPoint as="offset"/>
                    </mxGeometry>
                </mxCell>
                <mxCell id="53" style="edgeStyle=orthogonalEdgeStyle;orthogonalLoop=1;jettySize=auto;html=1;entryX=0.875;entryY=0.5;entryDx=0;entryDy=0;entryPerimeter=0;sketch=1;fontColor=#0D0D0D;labelBackgroundColor=#FFFFFF;" parent="1" source="2" target="52" edge="1">
                    <mxGeometry relative="1" as="geometry"/>
                </mxCell>
                <mxCell id="54" value="alert" style="text;html=1;resizable=0;points=[];align=center;verticalAlign=middle;rounded=1;sketch=1;fontColor=#0D0D0D;labelBackgroundColor=#FFFFFF;" parent="53" vertex="1" connectable="0">
                    <mxGeometry x="-0.5286" y="-24" relative="1" as="geometry">
                        <mxPoint as="offset"/>
                    </mxGeometry>
                </mxCell>
                <mxCell id="2" value="dsm-controller" style="whiteSpace=wrap;html=1;rounded=1;sketch=1;fillColor=#0050ef;strokeColor=#001DBC;fontColor=#0D0D0D;labelBackgroundColor=#FFFFFF;" parent="1" vertex="1">
                    <mxGeometry x="210" y="375" width="120" height="60" as="geometry"/>
                </mxCell>
                <mxCell id="27" style="edgeStyle=orthogonalEdgeStyle;orthogonalLoop=1;jettySize=auto;html=1;entryX=1;entryY=0.5;entryDx=0;entryDy=0;sketch=1;fontColor=#0D0D0D;labelBackgroundColor=#FFFFFF;" parent="1" source="3" target="13" edge="1">
                    <mxGeometry relative="1" as="geometry"/>
                </mxCell>
                <mxCell id="31" value="inject service" style="text;html=1;resizable=0;points=[];align=center;verticalAlign=middle;rounded=1;sketch=1;fontColor=#0D0D0D;labelBackgroundColor=#FFFFFF;" parent="27" vertex="1" connectable="0">
                    <mxGeometry x="0.6673" relative="1" as="geometry">
                        <mxPoint x="-150" y="-75" as="offset"/>
                    </mxGeometry>
                </mxCell>
                <mxCell id="3" value="istio（包含Istio 相关的控制面组件）" style="whiteSpace=wrap;html=1;rounded=1;sketch=1;fillColor=#f0a30a;strokeColor=#BD7000;fontColor=#0D0D0D;labelBackgroundColor=#FFFFFF;" parent="1" vertex="1">
                    <mxGeometry x="210" y="170" width="130" height="60" as="geometry"/>
                </mxCell>
                <mxCell id="23" style="edgeStyle=orthogonalEdgeStyle;orthogonalLoop=1;jettySize=auto;html=1;dashed=1;sketch=1;strokeColor=#006EAF;fillColor=#1ba1e2;fontColor=#0D0D0D;labelBackgroundColor=#FFFFFF;" parent="1" source="4" target="2" edge="1">
                    <mxGeometry relative="1" as="geometry"/>
                </mxCell>
                <mxCell id="33" value="watch&amp;nbsp;" style="text;html=1;resizable=0;points=[];align=center;verticalAlign=middle;rounded=1;sketch=1;fontColor=#0D0D0D;labelBackgroundColor=#FFFFFF;" parent="23" vertex="1" connectable="0">
                    <mxGeometry x="-0.3656" y="-1" relative="1" as="geometry">
                        <mxPoint as="offset"/>
                    </mxGeometry>
                </mxCell>
                <mxCell id="49" style="edgeStyle=orthogonalEdgeStyle;orthogonalLoop=1;jettySize=auto;html=1;dashed=1;sketch=1;fillColor=#1ba1e2;strokeColor=#006EAF;fontColor=#0D0D0D;labelBackgroundColor=#FFFFFF;" parent="1" source="4" edge="1">
                    <mxGeometry relative="1" as="geometry">
                        <mxPoint x="285" y="170" as="targetPoint"/>
                        <Array as="points">
                            <mxPoint x="270" y="790"/>
                            <mxPoint x="770" y="790"/>
                            <mxPoint x="770" y="120"/>
                            <mxPoint x="285" y="120"/>
                        </Array>
                    </mxGeometry>
                </mxCell>
                <mxCell id="50" value="watch" style="text;html=1;resizable=0;points=[];align=center;verticalAlign=middle;rounded=1;sketch=1;fontColor=#0D0D0D;labelBackgroundColor=#FFFFFF;" parent="49" vertex="1" connectable="0">
                    <mxGeometry x="0.648" y="5" relative="1" as="geometry">
                        <mxPoint x="209" y="465" as="offset"/>
                    </mxGeometry>
                </mxCell>
                <mxCell id="4" value="api-server" style="whiteSpace=wrap;html=1;rounded=1;sketch=1;fillColor=#76608a;strokeColor=#432D57;fontColor=#0D0D0D;labelBackgroundColor=#FFFFFF;" parent="1" vertex="1">
                    <mxGeometry x="210" y="580" width="120" height="60" as="geometry"/>
                </mxCell>
                <mxCell id="15" style="edgeStyle=orthogonalEdgeStyle;orthogonalLoop=1;jettySize=auto;html=1;dashed=1;sketch=1;fontColor=#0D0D0D;labelBackgroundColor=#FFFFFF;" parent="1" source="11" edge="1">
                    <mxGeometry relative="1" as="geometry">
                        <mxPoint x="330" y="620" as="targetPoint"/>
                        <Array as="points">
                            <mxPoint x="670" y="473"/>
                            <mxPoint x="670" y="680"/>
                            <mxPoint x="330" y="680"/>
                        </Array>
                    </mxGeometry>
                </mxCell>
                <mxCell id="41" value="update" style="text;html=1;resizable=0;points=[];align=center;verticalAlign=middle;rounded=1;sketch=1;fontColor=#0D0D0D;labelBackgroundColor=#FFFFFF;" parent="15" vertex="1" connectable="0">
                    <mxGeometry x="-0.7407" y="-2" relative="1" as="geometry">
                        <mxPoint x="-218" y="154" as="offset"/>
                    </mxGeometry>
                </mxCell>
                <mxCell id="11" value="serviceB" style="ellipse;whiteSpace=wrap;html=1;rounded=1;sketch=1;fillColor=#60a917;strokeColor=#2D7600;fontColor=#0D0D0D;labelBackgroundColor=#FFFFFF;" parent="1" vertex="1">
                    <mxGeometry x="560" y="445" width="80" height="55" as="geometry"/>
                </mxCell>
                <mxCell id="16" style="edgeStyle=orthogonalEdgeStyle;orthogonalLoop=1;jettySize=auto;html=1;dashed=1;sketch=1;fontColor=#0D0D0D;labelBackgroundColor=#FFFFFF;" parent="1" source="12" edge="1">
                    <mxGeometry relative="1" as="geometry">
                        <mxPoint x="340" y="610" as="targetPoint"/>
                    </mxGeometry>
                </mxCell>
                <mxCell id="38" value="delete" style="text;html=1;resizable=0;points=[];align=center;verticalAlign=middle;rounded=1;sketch=1;fontColor=#0D0D0D;labelBackgroundColor=#FFFFFF;" parent="16" vertex="1" connectable="0">
                    <mxGeometry x="-0.3032" y="-2" relative="1" as="geometry">
                        <mxPoint as="offset"/>
                    </mxGeometry>
                </mxCell>
                <mxCell id="12" value="serviceC" style="ellipse;whiteSpace=wrap;html=1;rounded=1;sketch=1;fillColor=#60a917;strokeColor=#2D7600;fontColor=#0D0D0D;labelBackgroundColor=#FFFFFF;" parent="1" vertex="1">
                    <mxGeometry x="520" y="580" width="80" height="55" as="geometry"/>
                </mxCell>
                <mxCell id="14" style="edgeStyle=orthogonalEdgeStyle;orthogonalLoop=1;jettySize=auto;html=1;entryX=1.021;entryY=0.617;entryDx=0;entryDy=0;entryPerimeter=0;dashed=1;sketch=1;fontColor=#0D0D0D;labelBackgroundColor=#FFFFFF;" parent="1" source="13" target="4" edge="1">
                    <mxGeometry relative="1" as="geometry">
                        <Array as="points">
                            <mxPoint x="710" y="348"/>
                            <mxPoint x="710" y="720"/>
                            <mxPoint x="333" y="720"/>
                        </Array>
                    </mxGeometry>
                </mxCell>
                <mxCell id="51" value="new" style="text;html=1;resizable=0;points=[];align=center;verticalAlign=middle;rounded=1;sketch=1;fontColor=#0D0D0D;labelBackgroundColor=#FFFFFF;" parent="14" vertex="1" connectable="0">
                    <mxGeometry x="0.504" y="-4" relative="1" as="geometry">
                        <mxPoint as="offset"/>
                    </mxGeometry>
                </mxCell>
                <mxCell id="13" value="serviceA" style="ellipse;whiteSpace=wrap;html=1;rounded=1;sketch=1;fillColor=#60a917;strokeColor=#2D7600;fontColor=#0D0D0D;labelBackgroundColor=#FFFFFF;" parent="1" vertex="1">
                    <mxGeometry x="570" y="320" width="80" height="55" as="geometry"/>
                </mxCell>
                <mxCell id="46" value="dsm-controller 从 api-server 获取新服务的信息，对其进行 auto inject" style="shape=callout;whiteSpace=wrap;html=1;perimeter=calloutPerimeter;position2=0.16;rounded=1;sketch=1;fontColor=#0D0D0D;labelBackgroundColor=#FFFFFF;" parent="1" vertex="1">
                    <mxGeometry x="510" y="90" width="120" height="100" as="geometry"/>
                </mxCell>
                <mxCell id="47" value="dsm-controller 从 api-server 获取服务修改，根据一定的策略进行纠正" style="shape=callout;whiteSpace=wrap;html=1;perimeter=calloutPerimeter;position2=0.66;rounded=1;sketch=1;fontColor=#0D0D0D;labelBackgroundColor=#FFFFFF;" parent="1" vertex="1">
                    <mxGeometry x="365" y="297.5" width="120" height="100" as="geometry"/>
                </mxCell>
                <mxCell id="52" value="dsm-alert" style="ellipse;shape=cloud;whiteSpace=wrap;html=1;rounded=1;sketch=1;fontColor=#0D0D0D;labelBackgroundColor=#FFFFFF;" parent="1" vertex="1">
                    <mxGeometry x="30" y="230" width="120" height="80" as="geometry"/>
                </mxCell>
            </root>
        </mxGraphModel>
    </diagram>
</mxfile>
